# xmcd CD database file
#
# Track frame offsets:
#	150
#	22312
#	87269
#	129284
#	153516
#	179233
#	212285
#	231860
#	258185
#	305172
#
# Disc length: 4316 seconds
#
# Revision: 1
# Processed by: cddbd v1.5.2PL0 Copyright (c) Steve Scherf et al.
# Submitted via: CDex 1.51
#
DISCID=8710da0a
DTITLE=The Modern Jazz Quartet - Under the Jasmin Tree/Space
DYEAR=2010
DGENRE=Jazz
TTITLE0=The Blue Necklace
TTITLE1=Three Little Feelings, Pts. 1-3
TTITLE2=Exposure
TTITLE3=The Jasmin Tree
TTITLE4=Visitor from Venus
TTITLE5=Visitor from Mars
TTITLE6=Here's That Rainy Day (Carnival of Flanders)
TTITLE7=Dilemma
TTITLE8=Adagio from Concierto de Aranjuez
TTITLE9=Yesterday 
EXTD=YEAR: 2010
EXTT0=
EXTT1=
EXTT2=
EXTT3=
EXTT4=
EXTT5=
EXTT6=
EXTT7=
EXTT8=
EXTT9=
PLAYORDER=
